<svg width="1000px" height="1000px" viewBox="0 0 1024.00 1024.00" class="icon" version="1.1" xmlns="http://www.w3.org/2000/svg" fill="#ffffff" stroke="#ffffff" stroke-width="0.01024"><g id="SVGRepo_bgCarrier" stroke-width="0"></g><g id="SVGRepo_tracerCarrier" stroke-linecap="round" stroke-linejoin="round" stroke="#CCCCCC" stroke-width="2.048"></g><g id="SVGRepo_iconCarrier"><path d="M512 512m-480 0a480 480 0 1 0 960 0 480 480 0 1 0-960 0Z" fill="#d4ddff"></path><path d="M262.4 537.6l32 236.8c6.4 25.6 19.2 32 32 6.4l76.8-115.2-140.8-128zM761.6 486.4L704 249.6c-6.4-25.6-19.2-25.6-32-6.4l-57.6 115.2 147.2 128z" fill="#5479ff"></path><path d="M512 512m-262.4 0a262.4 262.4 0 1 0 524.8 0 262.4 262.4 0 1 0-524.8 0Z" fill="#2957ff"></path><path d="M416 544v38.4h76.8v57.6h32v-57.6h76.8v-38.4H524.8v-25.6h76.8v-38.4h-57.6l57.6-57.6-25.6-32-70.4 70.4-64-70.4-25.6 32 57.6 57.6h-57.6v38.4h76.8v25.6z" fill="#FFFFFF"></path></g></svg>
